<?xml version="1.0" ?><!DOCTYPE svg  PUBLIC '-//W3C//DTD SVG 1.1//EN'  'http://www.w3.org/Graphics/SVG/1.1/DTD/svg11.dtd'><svg height="512px" style="enable-background:new 0 0 512 512;" version="1.1" viewBox="0 0 512 512" width="512px" xml:space="preserve" xmlns="http://www.w3.org/2000/svg" xmlns:xlink="http://www.w3.org/1999/xlink"><g id="_x32_3_x2C__Google_Photos"><g><circle cx="436" cy="81" r="40" style="fill:#FFFFFF;"/><path d="M101,401c13.81,0,25,11.19,25,25s-11.19,25-25,25c-13.81,0-25-11.19-25-25S87.19,401,101,401z" style="fill:#FFFFFF;"/><polygon points="256,131 256,256 151,131   " style="fill:#9BC9FF;"/><polygon points="151,131 256,256 131,256 26,256   " style="fill:#FFFFFF;"/><polygon points="256,256 131,361 131,256   " style="fill:#9BC9FF;"/><polygon points="256,381 256,486 131,361 256,256   " style="fill:#FFFFFF;"/><polygon points="256,256 361,381 256,381   " style="fill:#9BC9FF;"/><polygon points="486,256 361,381 256,256 381,256   " style="fill:#FFFFFF;"/><polygon points="381,151 381,256 256,256   " style="fill:#9BC9FF;"/><polygon points="381,151 256,256 256,131 256,26   " style="fill:#FFFFFF;"/><circle cx="458.5" cy="363.5" r="7.5" style="fill:#1E81CE;"/><circle cx="448.5" cy="173.5" r="7.5" style="fill:#1E81CE;"/><circle cx="368.5" cy="443.5" r="7.5" style="fill:#1E81CE;"/><circle cx="328.5" cy="41" r="7.5" style="fill:#1E81CE;"/><circle cx="178.5" cy="453.5" r="7.5" style="fill:#1E81CE;"/><circle cx="163.5" cy="43.5" r="7.5" style="fill:#1E81CE;"/><circle cx="78.5" cy="128.5" r="7.5" style="fill:#1E81CE;"/><circle cx="73.5" cy="316" r="7.5" style="fill:#1E81CE;"/><path d="M381,261c-2.762,0-5-2.238-5-5V153.071l-115-115V131c0,2.761-2.238,5-5,5c-2.761,0-5-2.239-5-5V26    c0-2.022,1.218-3.846,3.086-4.62c1.869-0.772,4.019-0.346,5.449,1.084l125,125c0.938,0.938,1.465,2.209,1.465,3.536v105    C386,258.762,383.762,261,381,261z" style="fill:#1E81CE;"/><path d="M256.001,491c-1.301,0-2.58-0.508-3.537-1.465l-125-125C126.527,363.598,126,362.326,126,361V256    c0-2.762,2.239-5,5-5s5,2.238,5,5v102.929l115,115V381c0-2.762,2.239-5,5-5c2.762,0,5,2.238,5,5v105    c0,2.022-1.219,3.846-3.086,4.619C257.295,490.876,256.645,491,256.001,491z" style="fill:#1E81CE;"/><path d="M131.002,366c-1.426,0-2.842-0.606-3.831-1.784c-1.776-2.114-1.502-5.269,0.613-7.044l125-105.001    c2.113-1.775,5.269-1.502,7.044,0.613c1.776,2.114,1.502,5.269-0.612,7.044l-125,105C133.279,365.615,132.138,366,131.002,366z" style="fill:#1E81CE;"/><path d="M256.002,261c-1.426,0-2.842-0.606-3.831-1.784c-1.776-2.114-1.502-5.269,0.613-7.045l125-105    c2.114-1.775,5.268-1.502,7.044,0.613c1.776,2.114,1.502,5.268-0.612,7.044l-125,105C258.279,260.615,257.138,261,256.002,261z" style="fill:#1E81CE;"/><path d="M361,386H256c-2.761,0-5-2.238-5-5V256c0-2.762,2.239-5,5-5h230c2.022,0,3.846,1.218,4.619,3.087    c0.773,1.868,0.346,4.019-1.084,5.449l-125,125C363.598,385.474,362.326,386,361,386z M261,376h97.929l115-115H261V376z" style="fill:#1E81CE;"/><path d="M256,261H26c-2.022,0-3.846-1.218-4.62-3.087c-0.773-1.869-0.346-4.019,1.084-5.449l125-125    c0.938-0.938,2.209-1.464,3.536-1.464h105c2.762,0,5,2.239,5,5v125C261,258.762,258.762,261,256,261z M38.071,251H251V136h-97.929    L38.071,251z" style="fill:#1E81CE;"/><path d="M256.002,261c-1.426,0-2.842-0.606-3.831-1.784l-105-125c-1.776-2.114-1.502-5.268,0.613-7.044    c2.114-1.776,5.267-1.503,7.044,0.613l105,125c1.776,2.114,1.502,5.269-0.612,7.044C258.279,260.615,257.138,261,256.002,261z" style="fill:#1E81CE;"/><path d="M361.002,386c-1.426,0-2.842-0.606-3.83-1.784l-105-125c-1.776-2.114-1.502-5.269,0.613-7.045    c2.113-1.775,5.269-1.502,7.044,0.613l105,125c1.776,2.114,1.502,5.269-0.612,7.044C363.279,385.615,362.138,386,361.002,386z" style="fill:#1E81CE;"/><path d="M436,126c-24.813,0-45-20.187-45-45s20.188-45,45-45s45,20.187,45,45S460.813,126,436,126z M436,46    c-19.299,0-35,15.701-35,35s15.701,35,35,35s35-15.701,35-35S455.299,46,436,46z" style="fill:#1E81CE;"/><path d="M101,456c-16.542,0-30-13.458-30-30s13.458-30,30-30s30,13.458,30,30S117.542,456,101,456z     M101,406c-11.028,0-20,8.972-20,20s8.972,20,20,20s20-8.972,20-20S112.028,406,101,406z" style="fill:#1E81CE;"/></g></g><g id="Layer_1"/></svg>